<svg version="1.1" id="Layer_1" xmlns="http://www.w3.org/2000/svg" xmlns:xlink="http://www.w3.org/1999/xlink" x="0px" y="0px"
	 width="100%" viewBox="0 0 500 500" enable-background="new 0 0 500 500" xml:space="preserve">
<path fill="#000000" opacity="1.000000" stroke="none" 
	d="
M491.039001,501.000000 
	C327.366760,501.000000 164.201263,501.000000 1.017893,501.000000 
	C1.017893,334.346466 1.017893,167.692947 1.017893,1.019711 
	C167.652313,1.019711 334.304626,1.019711 500.978455,1.019711 
	C500.978455,167.651108 500.978455,334.302216 500.978455,501.000000 
	C497.848663,501.000000 494.697235,501.000000 491.039001,501.000000 
M347.693176,362.072662 
	C347.581909,362.295074 347.470642,362.517487 347.359375,362.739899 
	C347.597473,362.512054 347.835541,362.284180 348.148682,361.984711 
	C348.148682,361.984711 347.943451,361.923767 347.693176,362.072662 
M384.606964,292.121948 
	C384.606964,292.121948 384.452209,291.839508 384.452209,291.839508 
	C384.452209,291.839508 384.505951,292.158844 384.606964,292.121948 
M339.027802,370.492157 
	C339.027802,370.492157 338.996368,370.525787 339.027802,370.492157 
z"/>
<path fill="#010101" opacity="1.000000" stroke="none" 
	d="
M384.556458,292.140381 
	C384.505951,292.158844 384.452209,291.839508 384.452209,291.839508 
	C384.452209,291.839508 384.606964,292.121948 384.556458,292.140381 
z"/>
<path fill="#060606" opacity="1.000000" stroke="none" 
	d="
M348.073639,362.056335 
	C347.835541,362.284180 347.597473,362.512054 347.359375,362.739899 
	C347.470642,362.517487 347.581909,362.295074 347.855377,362.026917 
	C348.017578,361.981171 348.073639,362.056335 348.073639,362.056335 
z"/>
<path fill="#060606" opacity="1.000000" stroke="none" 
	d="
M339.012085,370.508972 
	C338.996368,370.525787 339.027802,370.492157 339.012085,370.508972 
z"/>
<path fill="#060606" opacity="1.000000" stroke="none" 
	d="
M347.980530,361.952454 
	C347.943451,361.923767 348.148682,361.984711 348.111145,362.020508 
	C348.073639,362.056335 348.017578,361.981171 347.980530,361.952454 
z"/>
</svg>